<?xml version="1.0" standalone="no"?>
<!DOCTYPE svg PUBLIC "-//W3C//DTD SVG 20010904//EN"
 "http://www.w3.org/TR/2001/REC-SVG-20010904/DTD/svg10.dtd">
<svg version="1.0" xmlns="http://www.w3.org/2000/svg"
 width="100.000000pt" height="100.000000pt" viewBox="0 0 100.000000 100.000000"
 preserveAspectRatio="xMidYMid meet">
<metadata>
Created by potrace 1.14, written by Peter Selinger 2001-2017
</metadata>
<g transform="translate(0.000000,100.000000) scale(0.100000,-0.100000)"
fill="#000000" stroke="none">
<path d="M507 846 c-46 -17 -70 -37 -109 -93 -25 -37 -34 -43 -64 -43 -67 0
-144 -56 -144 -104 0 -9 -15 -26 -34 -37 -19 -11 -37 -26 -40 -34 -3 -8 -16
-16 -28 -16 -14 -1 -17 -3 -8 -5 12 -3 15 -14 12 -38 -7 -59 47 -126 103 -126
8 0 15 -8 16 -17 1 -23 5 -44 13 -64 4 -9 0 -21 -9 -29 -18 -15 -20 -41 -3
-58 7 -7 33 -12 58 -12 25 0 51 -5 57 -11 6 -6 37 -12 69 -14 63 -4 114 12
151 47 21 20 24 20 57 4 19 -9 45 -16 58 -16 28 0 80 26 91 46 5 8 23 14 43
14 42 0 80 23 99 61 10 18 25 29 42 32 l28 4 -26 2 c-22 1 -28 7 -33 35 -4 19
-12 39 -20 45 -17 14 1 89 27 115 18 18 22 44 9 61 -11 16 -70 55 -82 55 -15
0 -47 38 -64 75 -48 109 -160 159 -269 121z"/>
</g>
</svg>
